# xmcd
#
# Track frame offsets:
#	150
#	11290
#	24980
#	38319
#	58982
#	68047
#	80123
#	95220
#	117563
#	129701
#	154836
#	173241
#	193085
#	215468
#
# Disc length: 3182 seconds
#
# Revision: 0
# Processed by: cddbd v1.5.1PL2 Copyright (c) Steve Scherf et al.
# Submitted via: dBpowerAMP V4.0
#
DISCID=c20c6c0e
DTITLE=Edson Dutra - Serrano Cantor
DYEAR=1900
DGENRE=
TTITLE0=Mistura fina
TTITLE1=Tentação
TTITLE2=Três amigos
TTITLE3=Andanças gaúchas
TTITLE4=Vaneirão do Beto
TTITLE5=Rancheira dos Serranos
TTITLE6=Carucaca
TTITLE7=Serrano cantor
TTITLE8=Vaneirão da gaita velha
TTITLE9=Canção ao mundo novo
TTITLE10=Granada
TTITLE11=Que pasa entre los dos
TTITLE12=Sonata ao luar
TTITLE13=La Cumparsita
EXTD=
EXTT0=
EXTT1=
EXTT2=
EXTT3=
EXTT4=
EXTT5=
EXTT6=
EXTT7=
EXTT8=
EXTT9=
EXTT10=
EXTT11=
EXTT12=
EXTT13=
PLAYORDER=
